<?xml version="1.0" standalone="no"?>
<!DOCTYPE svg PUBLIC "-//W3C//DTD SVG 20010904//EN"
 "http://www.w3.org/TR/2001/REC-SVG-20010904/DTD/svg10.dtd">
<svg version="1.0" xmlns="http://www.w3.org/2000/svg"
 width="1080.000000pt" height="1080.000000pt" viewBox="0 0 1080.000000 1080.000000"
 preserveAspectRatio="xMidYMid meet">
<metadata>
Created by potrace 1.14, written by Peter Selinger 2001-2017
</metadata>
<g transform="translate(0.000000,1080.000000) scale(0.100000,-0.100000)"
fill="#000000" stroke="none">
<path d="M5108 10725 c-1 -2 -43 -6 -93 -10 -113 -7 -193 -15 -225 -20 -14 -2
-50 -7 -80 -10 -55 -6 -94 -11 -140 -20 -33 -6 -89 -15 -120 -20 -14 -2 -50
-9 -80 -15 -30 -6 -66 -14 -80 -16 -143 -29 -636 -167 -650 -183 -3 -3 -12 -7
-20 -9 -14 -3 -93 -32 -155 -57 -16 -7 -61 -25 -100 -40 -140 -55 -579 -269
-605 -295 -3 -3 -21 -13 -40 -24 -43 -23 -213 -128 -220 -136 -3 -3 -21 -14
-40 -24 -19 -11 -37 -22 -40 -26 -3 -3 -43 -32 -90 -65 -47 -32 -86 -62 -88
-67 -2 -4 -8 -8 -13 -8 -8 0 -35 -20 -64 -47 -8 -7 -18 -13 -22 -13 -5 0 -24
-16 -43 -35 -19 -19 -40 -35 -47 -35 -7 0 -17 -9 -23 -21 -7 -11 -14 -19 -16
-16 -3 2 -20 -10 -38 -27 -65 -60 -126 -115 -126 -111 0 1 -26 -23 -59 -54
-32 -31 -83 -79 -112 -107 -101 -97 -265 -272 -349 -373 -19 -23 -45 -54 -58
-69 -12 -15 -41 -52 -64 -82 -23 -30 -47 -60 -52 -65 -6 -6 -20 -24 -32 -40
-11 -17 -38 -55 -59 -85 -84 -120 -165 -240 -165 -245 0 -8 -43 -68 -53 -76
-5 -3 -7 -8 -6 -10 2 -2 -16 -35 -38 -74 -78 -132 -93 -160 -166 -305 -65
-131 -130 -267 -133 -280 0 -3 -6 -17 -12 -32 -67 -161 -85 -205 -87 -218 -2
-8 -18 -53 -35 -99 -32 -88 -96 -289 -112 -356 -11 -45 -13 -54 -28 -110 -6
-22 -13 -51 -16 -64 -2 -12 -12 -53 -20 -90 -9 -36 -17 -73 -19 -81 -14 -78
-18 -98 -21 -115 -2 -11 -6 -33 -8 -50 -3 -16 -8 -48 -11 -70 -3 -22 -8 -49
-10 -60 -1 -11 -6 -45 -10 -75 -3 -30 -9 -71 -11 -90 -3 -19 -7 -57 -9 -85 -2
-27 -8 -93 -12 -145 -16 -187 -8 -734 12 -896 29 -233 33 -261 51 -364 9 -47
17 -96 18 -110 2 -14 6 -34 9 -45 4 -11 9 -36 12 -55 3 -19 10 -48 14 -65 5
-16 13 -48 17 -70 8 -44 11 -54 14 -57 1 -2 3 -10 5 -18 8 -41 39 -154 63
-230 14 -47 27 -89 28 -95 11 -50 138 -381 196 -515 48 -108 176 -363 226
-450 30 -52 62 -108 71 -125 9 -16 19 -31 23 -33 5 -2 8 -8 8 -14 0 -5 13 -29
30 -53 16 -24 30 -48 30 -53 0 -6 3 -12 8 -14 4 -1 33 -41 64 -88 90 -136 132
-194 150 -211 10 -9 18 -19 18 -23 0 -6 24 -38 53 -68 9 -10 17 -22 17 -28 0
-5 6 -13 13 -17 6 -4 24 -24 38 -43 15 -19 35 -45 45 -56 11 -12 42 -48 69
-80 28 -32 71 -80 97 -107 27 -28 48 -52 48 -54 0 -3 7 -11 15 -19 8 -9 15
-12 15 -7 0 4 8 -4 18 -18 9 -14 57 -63 106 -110 49 -46 104 -99 122 -116 19
-18 36 -33 39 -33 2 0 19 -15 38 -32 41 -40 119 -108 124 -108 3 0 14 -9 68
-58 14 -12 25 -19 25 -15 0 4 6 0 13 -8 19 -23 145 -119 157 -119 5 0 10 -4
10 -8 0 -5 16 -17 35 -28 19 -10 35 -21 35 -25 0 -3 16 -14 35 -25 19 -10 35
-22 35 -26 0 -5 4 -8 9 -8 4 0 48 -26 97 -58 49 -32 96 -62 104 -65 8 -4 29
-16 45 -27 17 -10 41 -25 55 -33 14 -7 43 -24 65 -37 43 -25 382 -199 390
-200 3 0 26 -10 52 -22 169 -73 450 -181 505 -193 10 -2 44 -12 75 -23 32 -11
74 -24 93 -30 38 -12 338 -88 380 -96 14 -3 36 -7 50 -11 48 -10 316 -54 370
-60 30 -3 66 -8 80 -10 14 -3 52 -7 85 -10 33 -2 98 -8 145 -12 177 -16 752
-8 905 12 32 4 90 11 170 20 52 6 75 10 165 25 66 11 88 15 160 30 30 6 66 13
80 15 14 3 36 7 50 10 14 3 35 8 48 11 21 4 257 65 290 75 8 2 98 32 200 67
103 34 192 64 197 65 6 2 19 8 30 14 11 6 22 11 25 10 6 -1 134 52 220 90 213
96 620 312 628 334 2 5 8 9 13 9 9 0 150 87 159 99 3 3 17 12 32 20 15 8 37
22 47 33 11 10 25 18 31 18 5 0 10 5 10 10 0 6 5 10 11 10 6 0 17 6 24 13 22
19 38 31 75 57 19 13 49 35 66 49 17 14 48 40 69 56 21 17 43 35 49 40 6 6 36
30 66 55 53 43 98 82 184 163 22 20 43 37 47 37 4 0 11 9 14 20 3 11 11 20 16
20 10 0 100 90 222 224 45 49 94 102 110 118 15 16 27 31 27 34 0 3 9 15 21
27 12 12 33 38 47 57 15 19 29 37 32 40 23 22 90 110 90 118 0 6 4 12 8 14 18
7 272 374 272 393 0 3 5 11 10 18 20 24 57 83 71 115 7 17 17 32 21 32 5 0 8
6 8 14 0 8 6 21 14 28 7 8 17 25 21 38 4 14 11 27 15 30 19 14 174 343 252
535 66 164 164 451 193 565 71 279 107 441 120 540 3 25 8 52 10 60 2 8 6 38
10 65 3 28 10 77 15 110 5 33 11 89 14 125 3 36 9 103 13 150 16 170 8 727
-12 905 -15 131 -31 247 -45 340 -17 106 -18 109 -24 125 -3 8 -8 33 -11 55
-10 73 -75 340 -111 458 -14 45 -27 87 -28 92 -4 18 -37 119 -46 140 -4 11
-13 36 -20 55 -7 19 -16 44 -20 55 -129 326 -130 328 -241 549 -87 173 -139
270 -168 316 -9 14 -23 37 -31 53 -7 15 -17 27 -22 27 -4 0 -8 5 -8 10 0 10
-107 181 -130 207 -5 7 -10 16 -10 20 0 5 -9 15 -20 23 -11 8 -20 19 -20 24 0
13 -220 303 -275 362 -5 6 -35 40 -65 75 -85 98 -370 393 -370 383 0 -1 -15
12 -33 29 -18 18 -62 57 -97 87 -35 30 -71 62 -79 70 -59 54 -365 287 -429
325 -9 6 -56 36 -104 68 -48 31 -92 57 -97 57 -5 0 -11 4 -13 8 -10 23 -431
249 -608 326 -36 15 -79 34 -97 42 -150 67 -587 219 -688 240 -5 1 -57 13
-115 27 -58 14 -116 28 -130 31 -14 3 -47 11 -75 16 -27 6 -61 13 -75 15 -14
2 -34 6 -45 8 -35 8 -169 30 -190 32 -11 1 -40 5 -65 8 -25 4 -64 9 -87 11
-23 2 -46 7 -52 10 -5 4 -12 2 -16 -4 -4 -6 -13 -7 -23 -1 -9 5 -53 12 -97 16
-83 7 -711 16 -717 10z m-11 -4039 c-4 7 6 11 28 11 20 0 32 -4 28 -10 -4 -6
-1 -7 8 -1 8 5 40 9 72 10 43 1 57 -2 57 -12 0 -8 4 -14 8 -14 5 0 14 -11 20
-25 8 -17 8 -25 1 -25 -6 0 -7 -5 -4 -10 4 -6 10 -8 14 -6 4 3 8 -1 8 -9 0 -8
-4 -15 -9 -15 -5 0 -6 -4 -3 -10 3 -5 1 -10 -4 -10 -6 0 -11 -5 -11 -11 0 -5
5 -7 12 -3 7 4 8 3 4 -5 -4 -6 -11 -9 -16 -6 -4 3 -11 -2 -14 -11 -4 -9 -13
-14 -21 -10 -10 3 -15 -1 -16 -12 0 -13 -2 -12 -9 4 -5 12 -14 25 -21 30 -8 4
-10 3 -5 -4 4 -7 2 -12 -3 -12 -6 0 -11 6 -11 13 0 8 -4 7 -10 -3 -8 -13 -10
-12 -10 3 0 9 -7 17 -15 17 -8 0 -15 5 -15 11 0 5 -4 7 -10 4 -5 -3 -7 0 -4 9
3 9 -2 17 -15 21 -12 3 -21 11 -21 16 0 6 -4 7 -10 4 -5 -3 -10 3 -10 14 0 12
-7 21 -15 21 -12 0 -13 4 -6 19 6 10 7 22 3 27 -4 5 2 2 12 -6 11 -8 17 -10
13 -4z"/>
</g>
</svg>
